<mxfile host="Electron" agent="Mozilla/5.0 (Macintosh; Intel Mac OS X 10_15_7) AppleWebKit/537.36 (KHTML, like Gecko) draw.io/28.0.6 Chrome/138.0.7204.100 Electron/37.2.3 Safari/537.36" version="28.0.6">
  <diagram id="diagram1" name="CI/CD Testing Strategy">
    <mxGraphModel dx="2524" dy="2319" grid="1" gridSize="10" guides="1" tooltips="1" connect="1" arrows="1" fold="1" page="1" pageScale="1" pageWidth="827" pageHeight="1169" math="0" shadow="0">
      <root>
        <mxCell id="0" />
        <mxCell id="1" parent="0" />
        <mxCell id="tsUWQP2c0bH251ntCYhW-94" value="" style="rounded=1;whiteSpace=wrap;html=1;fillColor=#f5f5f5;dashed=1;strokeColor=#666666;fontColor=#333333;arcSize=3;" parent="1" vertex="1">
          <mxGeometry x="-140" y="-150" width="210" height="1600" as="geometry" />
        </mxCell>
        <mxCell id="tsUWQP2c0bH251ntCYhW-95" value="Local Development Environment" style="text;html=1;align=center;verticalAlign=middle;whiteSpace=wrap;rounded=0;fontSize=10;fontColor=#999999;" parent="1" vertex="1">
          <mxGeometry x="-140" y="-150" width="100" height="30" as="geometry" />
        </mxCell>
        <mxCell id="tsUWQP2c0bH251ntCYhW-91" value="" style="rounded=1;whiteSpace=wrap;html=1;fillColor=#f5f5f5;dashed=1;strokeColor=#666666;fontColor=#333333;arcSize=3;" parent="1" vertex="1">
          <mxGeometry x="120" y="-150" width="1170" height="1600" as="geometry" />
        </mxCell>
        <mxCell id="tsUWQP2c0bH251ntCYhW-81" style="edgeStyle=orthogonalEdgeStyle;rounded=0;orthogonalLoop=1;jettySize=auto;html=1;exitX=1;exitY=0.5;exitDx=0;exitDy=0;entryX=0.5;entryY=0;entryDx=0;entryDy=0;fontColor=#000000;strokeColor=#000000;" parent="1" source="2" target="tsUWQP2c0bH251ntCYhW-79" edge="1">
          <mxGeometry relative="1" as="geometry">
            <Array as="points">
              <mxPoint x="520" y="-55" />
              <mxPoint x="520" />
              <mxPoint x="708" />
            </Array>
          </mxGeometry>
        </mxCell>
        <mxCell id="2" value="Developer creates new commit on feature branch" style="rounded=1;whiteSpace=wrap;html=1;strokeColor=#82b366;fillColor=#DDF2DC;fontSize=14;fontColor=#000000;" parent="1" vertex="1">
          <mxGeometry x="-120" y="-100" width="170" height="90" as="geometry" />
        </mxCell>
        <mxCell id="tsUWQP2c0bH251ntCYhW-20" value="" style="edgeStyle=orthogonalEdgeStyle;rounded=0;orthogonalLoop=1;jettySize=auto;html=1;strokeColor=#000000;" parent="1" source="4" target="tsUWQP2c0bH251ntCYhW-18" edge="1">
          <mxGeometry relative="1" as="geometry" />
        </mxCell>
        <mxCell id="4" value="Run Unit test suite" style="rounded=1;whiteSpace=wrap;html=1;strokeColor=#000000;fillColor=#e8f0ff;fontSize=14;fontColor=#000000;" parent="1" vertex="1">
          <mxGeometry x="210" y="40" width="256" height="90" as="geometry" />
        </mxCell>
        <mxCell id="tsUWQP2c0bH251ntCYhW-17" value="" style="edgeStyle=orthogonalEdgeStyle;rounded=0;orthogonalLoop=1;jettySize=auto;html=1;exitX=1;exitY=0.5;exitDx=0;exitDy=0;fillColor=#d5e8d4;strokeColor=#82b366;" parent="1" source="tsUWQP2c0bH251ntCYhW-18" target="tsUWQP2c0bH251ntCYhW-16" edge="1">
          <mxGeometry relative="1" as="geometry">
            <mxPoint x="422" y="220" as="sourcePoint" />
            <Array as="points">
              <mxPoint x="482" y="205" />
            </Array>
          </mxGeometry>
        </mxCell>
        <mxCell id="tsUWQP2c0bH251ntCYhW-21" value="yes" style="edgeLabel;html=1;align=center;verticalAlign=middle;resizable=0;points=[];fontSize=14;labelBackgroundColor=#F5F5F5;fontColor=#000000;" parent="tsUWQP2c0bH251ntCYhW-17" vertex="1" connectable="0">
          <mxGeometry x="0.3541" y="-2" relative="1" as="geometry">
            <mxPoint x="-52" y="-42" as="offset" />
          </mxGeometry>
        </mxCell>
        <mxCell id="e2_3" style="edgeStyle=orthogonalEdgeStyle;rounded=0;orthogonalLoop=1;jettySize=auto;html=1;endArrow=block;entryX=0.5;entryY=0;entryDx=0;entryDy=0;fontSize=14;fontColor=#000000;strokeColor=#000000;" parent="1" source="2" target="4" edge="1">
          <mxGeometry relative="1" as="geometry">
            <mxPoint x="260" y="65" as="targetPoint" />
            <Array as="points">
              <mxPoint x="520" y="-55" />
              <mxPoint x="520" />
              <mxPoint x="338" />
            </Array>
          </mxGeometry>
        </mxCell>
        <mxCell id="tsUWQP2c0bH251ntCYhW-11" value="push" style="edgeLabel;html=1;align=center;verticalAlign=middle;resizable=0;points=[];fontSize=14;labelBackgroundColor=#FFFFFF;fontColor=#000000;" parent="e2_3" vertex="1" connectable="0">
          <mxGeometry x="-0.3" y="2" relative="1" as="geometry">
            <mxPoint x="-217" y="2" as="offset" />
          </mxGeometry>
        </mxCell>
        <mxCell id="e6_2" value="" style="edgeStyle=orthogonalEdgeStyle;rounded=0;orthogonalLoop=1;jettySize=auto;html=1;endArrow=block;fontSize=14;exitX=0;exitY=0.5;exitDx=0;exitDy=0;fillColor=#f8cecc;strokeColor=#b85450;" parent="1" source="tsUWQP2c0bH251ntCYhW-18" target="2" edge="1">
          <mxGeometry x="-0.6067" relative="1" as="geometry">
            <mxPoint x="392" y="190" as="sourcePoint" />
            <mxPoint as="offset" />
          </mxGeometry>
        </mxCell>
        <mxCell id="ScztevkAjZQJJXq5RaSU-5" value="no" style="edgeLabel;html=1;align=center;verticalAlign=middle;resizable=0;points=[];fontSize=14;labelBackgroundColor=#F5F5F5;fontColor=#000000;" vertex="1" connectable="0" parent="e6_2">
          <mxGeometry x="-0.6486" y="-4" relative="1" as="geometry">
            <mxPoint x="-3" y="4" as="offset" />
          </mxGeometry>
        </mxCell>
        <mxCell id="tsUWQP2c0bH251ntCYhW-13" value="GitHub Action / GitLab CI" style="text;html=1;align=center;verticalAlign=middle;whiteSpace=wrap;rounded=0;fontSize=10;fontColor=#7EA6E0;" parent="1" vertex="1">
          <mxGeometry x="210" y="40" width="86" height="30" as="geometry" />
        </mxCell>
        <mxCell id="tsUWQP2c0bH251ntCYhW-32" value="" style="edgeStyle=orthogonalEdgeStyle;rounded=0;orthogonalLoop=1;jettySize=auto;html=1;fillColor=#f8cecc;strokeColor=#b85450;" parent="1" source="tsUWQP2c0bH251ntCYhW-16" target="tsUWQP2c0bH251ntCYhW-31" edge="1">
          <mxGeometry relative="1" as="geometry" />
        </mxCell>
        <mxCell id="tsUWQP2c0bH251ntCYhW-34" value="no" style="edgeLabel;html=1;align=center;verticalAlign=middle;resizable=0;points=[];fontSize=14;fontColor=#000000;labelBackgroundColor=#F5F5F5;" parent="tsUWQP2c0bH251ntCYhW-32" vertex="1" connectable="0">
          <mxGeometry x="-0.34" y="1" relative="1" as="geometry">
            <mxPoint y="1" as="offset" />
          </mxGeometry>
        </mxCell>
        <mxCell id="tsUWQP2c0bH251ntCYhW-38" style="edgeStyle=orthogonalEdgeStyle;rounded=0;orthogonalLoop=1;jettySize=auto;html=1;exitX=1;exitY=0.5;exitDx=0;exitDy=0;endArrow=classic;endFill=1;entryX=0.5;entryY=0;entryDx=0;entryDy=0;fillColor=#d5e8d4;strokeColor=#82b366;" parent="1" source="tsUWQP2c0bH251ntCYhW-16" target="tsUWQP2c0bH251ntCYhW-45" edge="1">
          <mxGeometry relative="1" as="geometry">
            <mxPoint x="289" y="365" as="sourcePoint" />
            <mxPoint x="553" y="760" as="targetPoint" />
            <Array as="points">
              <mxPoint x="563" y="365" />
            </Array>
          </mxGeometry>
        </mxCell>
        <mxCell id="tsUWQP2c0bH251ntCYhW-39" value="yes" style="edgeLabel;html=1;align=center;verticalAlign=middle;resizable=0;points=[];fontSize=14;fontColor=#000000;labelBackgroundColor=#F5F5F5;" parent="tsUWQP2c0bH251ntCYhW-38" vertex="1" connectable="0">
          <mxGeometry x="-0.4469" y="3" relative="1" as="geometry">
            <mxPoint x="-16" y="-99" as="offset" />
          </mxGeometry>
        </mxCell>
        <mxCell id="tsUWQP2c0bH251ntCYhW-16" value="Does pull / merge request exist?" style="rhombus;whiteSpace=wrap;html=1;strokeColor=#000000;fillColor=#ffffff;fontSize=14;fontColor=#000000;" parent="1" vertex="1">
          <mxGeometry x="428" y="310" width="108" height="110" as="geometry" />
        </mxCell>
        <mxCell id="tsUWQP2c0bH251ntCYhW-18" value="Did all tests pass?" style="rhombus;whiteSpace=wrap;html=1;strokeColor=#000000;fillColor=#ffffff;fontSize=14;fontColor=#000000;" parent="1" vertex="1">
          <mxGeometry x="284" y="150" width="108" height="110" as="geometry" />
        </mxCell>
        <mxCell id="tsUWQP2c0bH251ntCYhW-26" value="" style="edgeStyle=orthogonalEdgeStyle;rounded=0;orthogonalLoop=1;jettySize=auto;html=1;fillColor=#d5e8d4;strokeColor=#82b366;" parent="1" source="tsUWQP2c0bH251ntCYhW-31" target="tsUWQP2c0bH251ntCYhW-25" edge="1">
          <mxGeometry relative="1" as="geometry">
            <mxPoint x="712" y="421" as="sourcePoint" />
          </mxGeometry>
        </mxCell>
        <mxCell id="tsUWQP2c0bH251ntCYhW-35" value="yes" style="edgeLabel;html=1;align=center;verticalAlign=middle;resizable=0;points=[];fontSize=14;labelBackgroundColor=#F5F5F5;fontColor=#000000;" parent="tsUWQP2c0bH251ntCYhW-26" vertex="1" connectable="0">
          <mxGeometry x="-0.375" y="-1" relative="1" as="geometry">
            <mxPoint as="offset" />
          </mxGeometry>
        </mxCell>
        <mxCell id="tsUWQP2c0bH251ntCYhW-27" style="edgeStyle=orthogonalEdgeStyle;rounded=0;orthogonalLoop=1;jettySize=auto;html=1;exitX=0;exitY=0.5;exitDx=0;exitDy=0;fillColor=#f8cecc;strokeColor=#b85450;" parent="1" source="tsUWQP2c0bH251ntCYhW-31" target="2" edge="1">
          <mxGeometry relative="1" as="geometry">
            <mxPoint x="584" y="335" as="sourcePoint" />
          </mxGeometry>
        </mxCell>
        <mxCell id="tsUWQP2c0bH251ntCYhW-28" value="no" style="edgeLabel;html=1;align=center;verticalAlign=middle;resizable=0;points=[];fontSize=14;labelBackgroundColor=#F5F5F5;fontColor=#000000;" parent="tsUWQP2c0bH251ntCYhW-27" vertex="1" connectable="0">
          <mxGeometry x="-0.6549" y="-3" relative="1" as="geometry">
            <mxPoint as="offset" />
          </mxGeometry>
        </mxCell>
        <mxCell id="tsUWQP2c0bH251ntCYhW-37" value="" style="edgeStyle=orthogonalEdgeStyle;rounded=0;orthogonalLoop=1;jettySize=auto;html=1;entryX=0.5;entryY=0;entryDx=0;entryDy=0;exitX=1;exitY=0.5;exitDx=0;exitDy=0;fillColor=#d5e8d4;strokeColor=#82b366;" parent="1" source="tsUWQP2c0bH251ntCYhW-25" target="tsUWQP2c0bH251ntCYhW-42" edge="1">
          <mxGeometry relative="1" as="geometry">
            <mxPoint x="317" y="670" as="sourcePoint" />
            <mxPoint x="283" y="830" as="targetPoint" />
            <Array as="points">
              <mxPoint x="563" y="670" />
              <mxPoint x="563" y="760" />
              <mxPoint x="273" y="760" />
            </Array>
          </mxGeometry>
        </mxCell>
        <mxCell id="tsUWQP2c0bH251ntCYhW-25" value="Create pull / merge request" style="whiteSpace=wrap;html=1;fontSize=14;fillColor=#DDF2DC;strokeColor=#82b366;rounded=1;fontColor=#000000;" parent="1" vertex="1">
          <mxGeometry x="422" y="640" width="120" height="60" as="geometry" />
        </mxCell>
        <mxCell id="tsUWQP2c0bH251ntCYhW-31" value="Is feature complete?" style="rhombus;whiteSpace=wrap;html=1;strokeColor=#000000;fillColor=#ffffff;fontSize=14;fontColor=#000000;" parent="1" vertex="1">
          <mxGeometry x="428" y="466" width="108" height="110" as="geometry" />
        </mxCell>
        <mxCell id="tsUWQP2c0bH251ntCYhW-57" style="edgeStyle=orthogonalEdgeStyle;rounded=0;orthogonalLoop=1;jettySize=auto;html=1;exitX=0.5;exitY=1;exitDx=0;exitDy=0;entryX=0.5;entryY=0;entryDx=0;entryDy=0;fontColor=#000000;strokeColor=#000000;" parent="1" source="tsUWQP2c0bH251ntCYhW-42" target="tsUWQP2c0bH251ntCYhW-56" edge="1">
          <mxGeometry relative="1" as="geometry" />
        </mxCell>
        <mxCell id="tsUWQP2c0bH251ntCYhW-42" value="Run Modular Integration test suite" style="rounded=1;whiteSpace=wrap;html=1;strokeColor=#000000;fillColor=#e8f0ff;fontSize=14;fontColor=#000000;" parent="1" vertex="1">
          <mxGeometry x="145" y="794" width="256" height="90" as="geometry" />
        </mxCell>
        <mxCell id="tsUWQP2c0bH251ntCYhW-43" value="GitHub Action / GitLab CI" style="text;html=1;align=center;verticalAlign=middle;whiteSpace=wrap;rounded=0;fontSize=10;fontColor=#7EA6E0;" parent="1" vertex="1">
          <mxGeometry x="145" y="794" width="86" height="30" as="geometry" />
        </mxCell>
        <mxCell id="tsUWQP2c0bH251ntCYhW-59" style="edgeStyle=orthogonalEdgeStyle;rounded=0;orthogonalLoop=1;jettySize=auto;html=1;exitX=0.5;exitY=1;exitDx=0;exitDy=0;entryX=0.5;entryY=0;entryDx=0;entryDy=0;fontColor=#000000;strokeColor=#000000;" parent="1" source="tsUWQP2c0bH251ntCYhW-45" target="tsUWQP2c0bH251ntCYhW-56" edge="1">
          <mxGeometry relative="1" as="geometry" />
        </mxCell>
        <mxCell id="tsUWQP2c0bH251ntCYhW-45" value="&lt;div&gt;&lt;br&gt;&lt;/div&gt;Run Regression Tests in Abstract-Hardware Simulation test suite" style="rounded=1;whiteSpace=wrap;html=1;strokeColor=#000000;fillColor=#e8f0ff;fontSize=14;fontColor=#000000;" parent="1" vertex="1">
          <mxGeometry x="435" y="794" width="256" height="90" as="geometry" />
        </mxCell>
        <mxCell id="tsUWQP2c0bH251ntCYhW-46" value="GitHub Action / GitLab CI" style="text;html=1;align=center;verticalAlign=middle;whiteSpace=wrap;rounded=0;fontSize=10;fontColor=#7EA6E0;" parent="1" vertex="1">
          <mxGeometry x="435" y="794" width="86" height="30" as="geometry" />
        </mxCell>
        <mxCell id="tsUWQP2c0bH251ntCYhW-52" style="edgeStyle=orthogonalEdgeStyle;rounded=0;orthogonalLoop=1;jettySize=auto;html=1;entryX=0.5;entryY=0;entryDx=0;entryDy=0;fillColor=#d5e8d4;strokeColor=#82b366;dashed=1;dashPattern=8 8;" parent="1" target="tsUWQP2c0bH251ntCYhW-47" edge="1">
          <mxGeometry relative="1" as="geometry">
            <mxPoint x="861" y="830" as="targetPoint" />
            <mxPoint x="563" y="670" as="sourcePoint" />
            <Array as="points">
              <mxPoint x="563" y="760" />
              <mxPoint x="858" y="760" />
            </Array>
          </mxGeometry>
        </mxCell>
        <mxCell id="ScztevkAjZQJJXq5RaSU-8" value="manual trigger" style="edgeLabel;html=1;align=center;verticalAlign=middle;resizable=0;points=[];fontColor=#000000;labelBackgroundColor=#F5F5F5;fontSize=14;" vertex="1" connectable="0" parent="tsUWQP2c0bH251ntCYhW-52">
          <mxGeometry x="0.3546" y="2" relative="1" as="geometry">
            <mxPoint x="-38" y="2" as="offset" />
          </mxGeometry>
        </mxCell>
        <mxCell id="tsUWQP2c0bH251ntCYhW-60" style="edgeStyle=orthogonalEdgeStyle;rounded=0;orthogonalLoop=1;jettySize=auto;html=1;exitX=0.5;exitY=1;exitDx=0;exitDy=0;fontColor=#000000;strokeColor=#000000;" parent="1" source="tsUWQP2c0bH251ntCYhW-47" target="tsUWQP2c0bH251ntCYhW-56" edge="1">
          <mxGeometry relative="1" as="geometry" />
        </mxCell>
        <mxCell id="tsUWQP2c0bH251ntCYhW-47" value="&lt;div&gt;&lt;br&gt;&lt;/div&gt;Run Wavefront-Propagation Simulation test suite" style="rounded=1;whiteSpace=wrap;html=1;strokeColor=#000000;fillColor=#e8f0ff;fontSize=14;fontColor=#000000;" parent="1" vertex="1">
          <mxGeometry x="730" y="794" width="256" height="90" as="geometry" />
        </mxCell>
        <mxCell id="tsUWQP2c0bH251ntCYhW-62" value="" style="edgeStyle=orthogonalEdgeStyle;rounded=0;orthogonalLoop=1;jettySize=auto;html=1;fillColor=#d5e8d4;strokeColor=#82b366;" parent="1" source="tsUWQP2c0bH251ntCYhW-56" target="tsUWQP2c0bH251ntCYhW-61" edge="1">
          <mxGeometry relative="1" as="geometry" />
        </mxCell>
        <mxCell id="tsUWQP2c0bH251ntCYhW-65" value="yes" style="edgeLabel;html=1;align=center;verticalAlign=middle;resizable=0;points=[];fontSize=14;labelBackgroundColor=#F5F5F5;fontColor=#000000;" parent="tsUWQP2c0bH251ntCYhW-62" vertex="1" connectable="0">
          <mxGeometry x="-0.4" relative="1" as="geometry">
            <mxPoint as="offset" />
          </mxGeometry>
        </mxCell>
        <mxCell id="tsUWQP2c0bH251ntCYhW-67" style="edgeStyle=orthogonalEdgeStyle;rounded=0;orthogonalLoop=1;jettySize=auto;html=1;exitX=0;exitY=0.5;exitDx=0;exitDy=0;entryX=0.5;entryY=1;entryDx=0;entryDy=0;fillColor=#f8cecc;strokeColor=#b85450;" parent="1" source="tsUWQP2c0bH251ntCYhW-56" target="2" edge="1">
          <mxGeometry relative="1" as="geometry" />
        </mxCell>
        <mxCell id="tsUWQP2c0bH251ntCYhW-71" value="no" style="edgeLabel;html=1;align=center;verticalAlign=middle;resizable=0;points=[];fontSize=14;labelBackgroundColor=#F5F5F5;fontColor=#000000;" parent="tsUWQP2c0bH251ntCYhW-67" vertex="1" connectable="0">
          <mxGeometry x="-0.7046" y="-2" relative="1" as="geometry">
            <mxPoint as="offset" />
          </mxGeometry>
        </mxCell>
        <mxCell id="tsUWQP2c0bH251ntCYhW-56" value="Did all tests pass?" style="rhombus;whiteSpace=wrap;html=1;strokeColor=#000000;fillColor=#ffffff;fontSize=14;fontColor=#000000;" parent="1" vertex="1">
          <mxGeometry x="509" y="930" width="108" height="110" as="geometry" />
        </mxCell>
        <mxCell id="tsUWQP2c0bH251ntCYhW-64" value="" style="edgeStyle=orthogonalEdgeStyle;rounded=0;orthogonalLoop=1;jettySize=auto;html=1;fillColor=#d5e8d4;strokeColor=#82b366;" parent="1" source="tsUWQP2c0bH251ntCYhW-61" target="tsUWQP2c0bH251ntCYhW-63" edge="1">
          <mxGeometry relative="1" as="geometry" />
        </mxCell>
        <mxCell id="tsUWQP2c0bH251ntCYhW-66" value="yes" style="edgeLabel;html=1;align=center;verticalAlign=middle;resizable=0;points=[];fontSize=14;labelBackgroundColor=#F5F5F5;fontColor=#000000;" parent="tsUWQP2c0bH251ntCYhW-64" vertex="1" connectable="0">
          <mxGeometry x="-0.4" relative="1" as="geometry">
            <mxPoint as="offset" />
          </mxGeometry>
        </mxCell>
        <mxCell id="tsUWQP2c0bH251ntCYhW-69" style="edgeStyle=orthogonalEdgeStyle;rounded=0;orthogonalLoop=1;jettySize=auto;html=1;entryX=0.5;entryY=1;entryDx=0;entryDy=0;fillColor=#f8cecc;strokeColor=#b85450;" parent="1" source="tsUWQP2c0bH251ntCYhW-61" target="2" edge="1">
          <mxGeometry relative="1" as="geometry" />
        </mxCell>
        <mxCell id="tsUWQP2c0bH251ntCYhW-70" value="no" style="edgeLabel;html=1;align=center;verticalAlign=middle;resizable=0;points=[];fontSize=14;labelBackgroundColor=#F5F5F5;fontColor=#000000;" parent="tsUWQP2c0bH251ntCYhW-69" vertex="1" connectable="0">
          <mxGeometry x="-0.7235" y="-2" relative="1" as="geometry">
            <mxPoint as="offset" />
          </mxGeometry>
        </mxCell>
        <mxCell id="tsUWQP2c0bH251ntCYhW-61" value="Did at least one reviewer evaluate and approve the pull / merge request" style="rhombus;whiteSpace=wrap;html=1;strokeColor=#000000;fillColor=#ffffff;fontSize=10;fontColor=#000000;" parent="1" vertex="1">
          <mxGeometry x="509" y="1087" width="108" height="110" as="geometry" />
        </mxCell>
        <mxCell id="tsUWQP2c0bH251ntCYhW-77" style="edgeStyle=orthogonalEdgeStyle;rounded=0;orthogonalLoop=1;jettySize=auto;html=1;exitX=0.5;exitY=1;exitDx=0;exitDy=0;entryX=0.5;entryY=0;entryDx=0;entryDy=0;fontColor=#000000;strokeColor=#000000;" parent="1" source="tsUWQP2c0bH251ntCYhW-63" target="tsUWQP2c0bH251ntCYhW-73" edge="1">
          <mxGeometry relative="1" as="geometry" />
        </mxCell>
        <mxCell id="tsUWQP2c0bH251ntCYhW-78" style="edgeStyle=orthogonalEdgeStyle;rounded=0;orthogonalLoop=1;jettySize=auto;html=1;exitX=0.5;exitY=1;exitDx=0;exitDy=0;fontColor=#000000;strokeColor=#000000;" parent="1" source="tsUWQP2c0bH251ntCYhW-63" target="tsUWQP2c0bH251ntCYhW-75" edge="1">
          <mxGeometry relative="1" as="geometry" />
        </mxCell>
        <mxCell id="tsUWQP2c0bH251ntCYhW-63" value="&lt;font style=&quot;font-size: 14px;&quot;&gt;Merge feature branch into main / dev&lt;/font&gt;" style="rounded=1;whiteSpace=wrap;html=1;fontSize=10;fillColor=#DDF2DC;strokeColor=#82b366;fontColor=#000000;" parent="1" vertex="1">
          <mxGeometry x="503" y="1245" width="120" height="60" as="geometry" />
        </mxCell>
        <mxCell id="tsUWQP2c0bH251ntCYhW-73" value="Recompile Documentation" style="rounded=1;whiteSpace=wrap;html=1;strokeColor=#000000;fillColor=#e8f0ff;fontSize=14;fontColor=#000000;" parent="1" vertex="1">
          <mxGeometry x="286" y="1345" width="256" height="90" as="geometry" />
        </mxCell>
        <mxCell id="tsUWQP2c0bH251ntCYhW-74" value="GitHub Action / GitLab CI" style="text;html=1;align=center;verticalAlign=middle;whiteSpace=wrap;rounded=0;fontSize=10;fontColor=#7EA6E0;" parent="1" vertex="1">
          <mxGeometry x="286" y="1345" width="86" height="30" as="geometry" />
        </mxCell>
        <mxCell id="tsUWQP2c0bH251ntCYhW-75" value="Recompile Coverage metrics" style="rounded=1;whiteSpace=wrap;html=1;strokeColor=#000000;fillColor=#e8f0ff;fontSize=14;fontColor=#000000;" parent="1" vertex="1">
          <mxGeometry x="590" y="1345" width="256" height="90" as="geometry" />
        </mxCell>
        <mxCell id="tsUWQP2c0bH251ntCYhW-76" value="GitHub Action / GitLab CI" style="text;html=1;align=center;verticalAlign=middle;whiteSpace=wrap;rounded=0;fontSize=10;fontColor=#7EA6E0;" parent="1" vertex="1">
          <mxGeometry x="590" y="1345" width="86" height="30" as="geometry" />
        </mxCell>
        <mxCell id="tsUWQP2c0bH251ntCYhW-83" value="" style="edgeStyle=orthogonalEdgeStyle;rounded=0;orthogonalLoop=1;jettySize=auto;html=1;entryX=0.5;entryY=0;entryDx=0;entryDy=0;strokeColor=#000000;" parent="1" source="tsUWQP2c0bH251ntCYhW-79" target="tsUWQP2c0bH251ntCYhW-82" edge="1">
          <mxGeometry relative="1" as="geometry">
            <mxPoint x="708" y="150" as="targetPoint" />
          </mxGeometry>
        </mxCell>
        <mxCell id="tsUWQP2c0bH251ntCYhW-79" value="Calculate test coverage for feature" style="rounded=1;whiteSpace=wrap;html=1;strokeColor=#000000;fillColor=#e8f0ff;fontSize=14;fontColor=#000000;" parent="1" vertex="1">
          <mxGeometry x="580" y="40" width="256" height="90" as="geometry" />
        </mxCell>
        <mxCell id="tsUWQP2c0bH251ntCYhW-80" value="GitHub Action / GitLab CI" style="text;html=1;align=center;verticalAlign=middle;whiteSpace=wrap;rounded=0;fontSize=10;fontColor=#7EA6E0;" parent="1" vertex="1">
          <mxGeometry x="580" y="40" width="86" height="30" as="geometry" />
        </mxCell>
        <mxCell id="tsUWQP2c0bH251ntCYhW-84" style="edgeStyle=orthogonalEdgeStyle;rounded=0;orthogonalLoop=1;jettySize=auto;html=1;exitX=0;exitY=0.5;exitDx=0;exitDy=0;fillColor=#d5e8d4;strokeColor=#82b366;" parent="1" source="tsUWQP2c0bH251ntCYhW-82" target="tsUWQP2c0bH251ntCYhW-16" edge="1">
          <mxGeometry relative="1" as="geometry" />
        </mxCell>
        <mxCell id="tsUWQP2c0bH251ntCYhW-85" value="yes" style="edgeLabel;html=1;align=center;verticalAlign=middle;resizable=0;points=[];fontSize=14;labelBackgroundColor=#F5F5F5;fontColor=#000000;" parent="tsUWQP2c0bH251ntCYhW-84" vertex="1" connectable="0">
          <mxGeometry x="-0.3574" relative="1" as="geometry">
            <mxPoint as="offset" />
          </mxGeometry>
        </mxCell>
        <mxCell id="tsUWQP2c0bH251ntCYhW-87" style="edgeStyle=orthogonalEdgeStyle;rounded=0;orthogonalLoop=1;jettySize=auto;html=1;exitX=0.5;exitY=1;exitDx=0;exitDy=0;entryX=0.5;entryY=1;entryDx=0;entryDy=0;jumpStyle=arc;fillColor=#f8cecc;strokeColor=#b85450;" parent="1" source="tsUWQP2c0bH251ntCYhW-82" target="2" edge="1">
          <mxGeometry relative="1" as="geometry" />
        </mxCell>
        <mxCell id="tsUWQP2c0bH251ntCYhW-88" value="no" style="edgeLabel;html=1;align=center;verticalAlign=middle;resizable=0;points=[];fontSize=14;labelBackgroundColor=#F5F5F5;fontColor=#000000;" parent="tsUWQP2c0bH251ntCYhW-87" vertex="1" connectable="0">
          <mxGeometry x="-0.832" y="2" relative="1" as="geometry">
            <mxPoint x="1" y="-2" as="offset" />
          </mxGeometry>
        </mxCell>
        <mxCell id="tsUWQP2c0bH251ntCYhW-82" value="Does&amp;nbsp;&lt;div&gt;coverage match requirements?&lt;/div&gt;&lt;div&gt;&lt;br&gt;&lt;/div&gt;" style="rhombus;whiteSpace=wrap;html=1;strokeColor=#000000;fillColor=#ffffff;fontSize=12;fontColor=#000000;" parent="1" vertex="1">
          <mxGeometry x="654" y="150" width="108" height="110" as="geometry" />
        </mxCell>
        <mxCell id="tsUWQP2c0bH251ntCYhW-92" value="Cloud Environment" style="text;html=1;align=center;verticalAlign=middle;whiteSpace=wrap;rounded=0;fontSize=10;fontColor=#999999;" parent="1" vertex="1">
          <mxGeometry x="130" y="-150" width="100" height="30" as="geometry" />
        </mxCell>
        <mxCell id="ScztevkAjZQJJXq5RaSU-11" value="GitHub Action / GitLab CI" style="text;html=1;align=center;verticalAlign=middle;whiteSpace=wrap;rounded=0;fontSize=10;fontColor=#7EA6E0;" vertex="1" parent="1">
          <mxGeometry x="729.663333333333" y="794" width="86" height="30" as="geometry" />
        </mxCell>
        <mxCell id="ScztevkAjZQJJXq5RaSU-16" value="&lt;div&gt;&lt;br&gt;&lt;/div&gt;Run Performance &amp;amp; Benchmarking test suite" style="rounded=1;whiteSpace=wrap;html=1;strokeColor=#000000;fillColor=#e8f0ff;fontSize=14;fontColor=#000000;" vertex="1" parent="1">
          <mxGeometry x="960.3300002469127" y="39.999999999999545" width="256" height="90" as="geometry" />
        </mxCell>
        <mxCell id="ScztevkAjZQJJXq5RaSU-27" style="edgeStyle=orthogonalEdgeStyle;rounded=0;orthogonalLoop=1;jettySize=auto;html=1;entryX=0.5;entryY=0;entryDx=0;entryDy=0;fillColor=#d5e8d4;strokeColor=#82b366;dashed=1;dashPattern=8 8;" edge="1" parent="1">
          <mxGeometry relative="1" as="geometry">
            <mxPoint x="1142.003333333333" y="794" as="targetPoint" />
            <mxPoint x="860" y="760" as="sourcePoint" />
          </mxGeometry>
        </mxCell>
        <mxCell id="ScztevkAjZQJJXq5RaSU-28" value="manual trigger" style="edgeLabel;html=1;align=center;verticalAlign=middle;resizable=0;points=[];fontColor=#000000;labelBackgroundColor=#F5F5F5;fontSize=14;" vertex="1" connectable="0" parent="ScztevkAjZQJJXq5RaSU-27">
          <mxGeometry x="0.3546" y="2" relative="1" as="geometry">
            <mxPoint x="-70" y="2" as="offset" />
          </mxGeometry>
        </mxCell>
        <mxCell id="ScztevkAjZQJJXq5RaSU-17" value="GitHub Action / GitLab CI" style="text;html=1;align=center;verticalAlign=middle;whiteSpace=wrap;rounded=0;fontSize=10;fontColor=#7EA6E0;" vertex="1" parent="1">
          <mxGeometry x="960.3300002469127" y="39.999999999999545" width="86" height="30" as="geometry" />
        </mxCell>
        <mxCell id="ScztevkAjZQJJXq5RaSU-19" style="edgeStyle=orthogonalEdgeStyle;rounded=0;orthogonalLoop=1;jettySize=auto;html=1;fontColor=#000000;strokeColor=#000000;dashed=1;dashPattern=8 8;" edge="1" parent="1" target="ScztevkAjZQJJXq5RaSU-16">
          <mxGeometry relative="1" as="geometry">
            <mxPoint x="520" as="sourcePoint" />
            <mxPoint x="1015.33" y="25" as="targetPoint" />
          </mxGeometry>
        </mxCell>
        <mxCell id="ScztevkAjZQJJXq5RaSU-21" value="&lt;span style=&quot;color: rgba(0, 0, 0, 0); font-family: monospace; font-size: 0px; text-align: start; background-color: rgb(236, 236, 236);&quot;&gt;%3CmxGraphModel%3E%3Croot%3E%3CmxCell%20id%3D%220%22%2F%3E%3CmxCell%20id%3D%221%22%20parent%3D%220%22%2F%3E%3CmxCell%20id%3D%222%22%20value%3D%22manual%20trigger%22%20style%3D%22edgeLabel%3Bhtml%3D1%3Balign%3Dcenter%3BverticalAlign%3Dmiddle%3Bresizable%3D0%3Bpoints%3D%5B%5D%3BfontColor%3D%23000000%3BlabelBackgroundColor%3D%23F5F5F5%3B%22%20vertex%3D%221%22%20connectable%3D%220%22%20parent%3D%221%22%3E%3CmxGeometry%20x%3D%22729.3333330864202%22%20y%3D%22761%22%20as%3D%22geometry%22%2F%3E%3C%2FmxCell%3E%3C%2Froot%3E%3C%2FmxGraphModel%manual&lt;/span&gt;" style="edgeLabel;html=1;align=center;verticalAlign=middle;resizable=0;points=[];" vertex="1" connectable="0" parent="ScztevkAjZQJJXq5RaSU-19">
          <mxGeometry x="0.2838" y="2" relative="1" as="geometry">
            <mxPoint as="offset" />
          </mxGeometry>
        </mxCell>
        <mxCell id="ScztevkAjZQJJXq5RaSU-22" value="manual trigger" style="edgeLabel;html=1;align=center;verticalAlign=middle;resizable=0;points=[];fontColor=#000000;labelBackgroundColor=#F5F5F5;fontSize=14;" vertex="1" connectable="0" parent="ScztevkAjZQJJXq5RaSU-19">
          <mxGeometry x="0.2728" y="7" relative="1" as="geometry">
            <mxPoint y="7" as="offset" />
          </mxGeometry>
        </mxCell>
        <mxCell id="tsUWQP2c0bH251ntCYhW-48" value="GitHub Action / GitLab CI" style="text;html=1;align=center;verticalAlign=middle;whiteSpace=wrap;rounded=0;fontSize=10;fontColor=#7EA6E0;" parent="1" vertex="1">
          <mxGeometry x="1020" y="794" width="86" height="30" as="geometry" />
        </mxCell>
        <mxCell id="ScztevkAjZQJJXq5RaSU-26" value="&lt;div&gt;&lt;br&gt;&lt;/div&gt;Run Performance &amp;amp; Benchmarking test suite" style="rounded=1;whiteSpace=wrap;html=1;strokeColor=#000000;fillColor=#e8f0ff;fontSize=14;fontColor=#000000;" vertex="1" parent="1">
          <mxGeometry x="1020.003333333333" y="794" width="256" height="90" as="geometry" />
        </mxCell>
        <mxCell id="ScztevkAjZQJJXq5RaSU-31" value="GitHub Action / GitLab CI" style="text;html=1;align=center;verticalAlign=middle;whiteSpace=wrap;rounded=0;fontSize=10;fontColor=#7EA6E0;" vertex="1" parent="1">
          <mxGeometry x="1020" y="794" width="86" height="30" as="geometry" />
        </mxCell>
      </root>
    </mxGraphModel>
  </diagram>
</mxfile>
